<svg width="123" height="30" viewBox="0 0 123 30" fill="none" xmlns="http://www.w3.org/2000/svg">
<mask id="path-1-outside-1_410_122" maskUnits="userSpaceOnUse" x="0" y="0" width="123" height="30" fill="black">
<rect fill="white" width="123" height="30"/>
<path d="M11.5 17.3636H16.4091L18.1818 19.5909L21.1818 23L25.0909 27.7273H19.5L16.7273 24.5L14.8636 21.8182L11.5 17.3636ZM25.0455 14.3636C25.0455 16.9545 24.5417 19.1402 23.5341 20.9205C22.5265 22.6932 21.1667 24.0379 19.4545 24.9545C17.7424 25.8636 15.8333 26.3182 13.7273 26.3182C11.6061 26.3182 9.68939 25.8598 7.97727 24.9432C6.27273 24.0189 4.91667 22.6705 3.90909 20.8977C2.90909 19.1174 2.40909 16.9394 2.40909 14.3636C2.40909 11.7727 2.90909 9.59091 3.90909 7.81818C4.91667 6.03788 6.27273 4.69318 7.97727 3.78409C9.68939 2.86742 11.6061 2.40909 13.7273 2.40909C15.8333 2.40909 17.7424 2.86742 19.4545 3.78409C21.1667 4.69318 22.5265 6.03788 23.5341 7.81818C24.5417 9.59091 25.0455 11.7727 25.0455 14.3636ZM18.5455 14.3636C18.5455 12.9697 18.3598 11.7955 17.9886 10.8409C17.625 9.87879 17.0833 9.15151 16.3636 8.65909C15.6515 8.15909 14.7727 7.90909 13.7273 7.90909C12.6818 7.90909 11.7992 8.15909 11.0795 8.65909C10.3674 9.15151 9.82576 9.87879 9.45455 10.8409C9.09091 11.7955 8.90909 12.9697 8.90909 14.3636C8.90909 15.7576 9.09091 16.9356 9.45455 17.8977C9.82576 18.8523 10.3674 19.5795 11.0795 20.0795C11.7992 20.572 12.6818 20.8182 13.7273 20.8182C14.7727 20.8182 15.6515 20.572 16.3636 20.0795C17.0833 19.5795 17.625 18.8523 17.9886 17.8977C18.3598 16.9356 18.5455 15.7576 18.5455 14.3636ZM41.7727 2.72727H48.0909V17.6364C48.0909 19.4091 47.6667 20.9432 46.8182 22.2386C45.9773 23.5265 44.803 24.5227 43.2955 25.2273C41.7879 25.9242 40.0379 26.2727 38.0455 26.2727C36.0379 26.2727 34.2803 25.9242 32.7727 25.2273C31.2652 24.5227 30.0909 23.5265 29.25 22.2386C28.4167 20.9432 28 19.4091 28 17.6364V2.72727H34.3182V17.0909C34.3182 17.8106 34.4773 18.4545 34.7955 19.0227C35.1136 19.5833 35.553 20.0227 36.1136 20.3409C36.6818 20.6591 37.3258 20.8182 38.0455 20.8182C38.7727 20.8182 39.4167 20.6591 39.9773 20.3409C40.5379 20.0227 40.9773 19.5833 41.2955 19.0227C41.6136 18.4545 41.7727 17.8106 41.7727 17.0909V2.72727ZM57.4119 2.72727V26H51.0938V2.72727H57.4119ZM60.4972 26V22.5L71.4972 7.81818H60.5426V2.72727H79.5426V6.22727L68.5426 20.9091H79.4972V26H60.4972ZM82.625 26V2.72727H88.9432V20.9091H98.3523V26H82.625ZM95.733 2.72727H102.778L107.324 12.1818H107.506L112.051 2.72727H119.097L110.551 18.6818V26H104.278V18.6818L95.733 2.72727Z"/>
</mask>
<path d="M11.5 17.3636H16.4091L18.1818 19.5909L21.1818 23L25.0909 27.7273H19.5L16.7273 24.5L14.8636 21.8182L11.5 17.3636ZM25.0455 14.3636C25.0455 16.9545 24.5417 19.1402 23.5341 20.9205C22.5265 22.6932 21.1667 24.0379 19.4545 24.9545C17.7424 25.8636 15.8333 26.3182 13.7273 26.3182C11.6061 26.3182 9.68939 25.8598 7.97727 24.9432C6.27273 24.0189 4.91667 22.6705 3.90909 20.8977C2.90909 19.1174 2.40909 16.9394 2.40909 14.3636C2.40909 11.7727 2.90909 9.59091 3.90909 7.81818C4.91667 6.03788 6.27273 4.69318 7.97727 3.78409C9.68939 2.86742 11.6061 2.40909 13.7273 2.40909C15.8333 2.40909 17.7424 2.86742 19.4545 3.78409C21.1667 4.69318 22.5265 6.03788 23.5341 7.81818C24.5417 9.59091 25.0455 11.7727 25.0455 14.3636ZM18.5455 14.3636C18.5455 12.9697 18.3598 11.7955 17.9886 10.8409C17.625 9.87879 17.0833 9.15151 16.3636 8.65909C15.6515 8.15909 14.7727 7.90909 13.7273 7.90909C12.6818 7.90909 11.7992 8.15909 11.0795 8.65909C10.3674 9.15151 9.82576 9.87879 9.45455 10.8409C9.09091 11.7955 8.90909 12.9697 8.90909 14.3636C8.90909 15.7576 9.09091 16.9356 9.45455 17.8977C9.82576 18.8523 10.3674 19.5795 11.0795 20.0795C11.7992 20.572 12.6818 20.8182 13.7273 20.8182C14.7727 20.8182 15.6515 20.572 16.3636 20.0795C17.0833 19.5795 17.625 18.8523 17.9886 17.8977C18.3598 16.9356 18.5455 15.7576 18.5455 14.3636ZM41.7727 2.72727H48.0909V17.6364C48.0909 19.4091 47.6667 20.9432 46.8182 22.2386C45.9773 23.5265 44.803 24.5227 43.2955 25.2273C41.7879 25.9242 40.0379 26.2727 38.0455 26.2727C36.0379 26.2727 34.2803 25.9242 32.7727 25.2273C31.2652 24.5227 30.0909 23.5265 29.25 22.2386C28.4167 20.9432 28 19.4091 28 17.6364V2.72727H34.3182V17.0909C34.3182 17.8106 34.4773 18.4545 34.7955 19.0227C35.1136 19.5833 35.553 20.0227 36.1136 20.3409C36.6818 20.6591 37.3258 20.8182 38.0455 20.8182C38.7727 20.8182 39.4167 20.6591 39.9773 20.3409C40.5379 20.0227 40.9773 19.5833 41.2955 19.0227C41.6136 18.4545 41.7727 17.8106 41.7727 17.0909V2.72727ZM57.4119 2.72727V26H51.0938V2.72727H57.4119ZM60.4972 26V22.5L71.4972 7.81818H60.5426V2.72727H79.5426V6.22727L68.5426 20.9091H79.4972V26H60.4972ZM82.625 26V2.72727H88.9432V20.9091H98.3523V26H82.625ZM95.733 2.72727H102.778L107.324 12.1818H107.506L112.051 2.72727H119.097L110.551 18.6818V26H104.278V18.6818L95.733 2.72727Z" fill="white"/>
<path d="M11.5 17.3636V15.3636H7.48366L9.90392 18.5688L11.5 17.3636ZM16.4091 17.3636L17.9739 16.1181L17.3734 15.3636H16.4091V17.3636ZM18.1818 19.5909L16.617 20.8364L16.6477 20.8751L16.6804 20.9122L18.1818 19.5909ZM21.1818 23L22.7231 21.7255L22.7035 21.7018L22.6832 21.6787L21.1818 23ZM25.0909 27.7273V29.7273H29.34L26.6322 26.4527L25.0909 27.7273ZM19.5 27.7273L17.983 29.0306L18.5815 29.7273H19.5V27.7273ZM16.7273 24.5L15.0849 25.6413L15.1434 25.7255L15.2103 25.8033L16.7273 24.5ZM14.8636 21.8182L16.506 20.6769L16.4835 20.6445L16.4597 20.613L14.8636 21.8182ZM23.5341 20.9205L25.2729 21.9087L25.2747 21.9055L23.5341 20.9205ZM19.4545 24.9545L20.3925 26.721L20.3986 26.7177L19.4545 24.9545ZM7.97727 24.9432L7.02394 26.7014L7.03326 26.7064L7.97727 24.9432ZM3.90909 20.8977L2.16532 21.8772L2.17032 21.886L3.90909 20.8977ZM3.90909 7.81818L2.16852 6.83309L2.16713 6.83554L3.90909 7.81818ZM7.97727 3.78409L8.91845 5.5488L8.92128 5.54728L7.97727 3.78409ZM19.4545 3.78409L18.5105 5.54729L18.5166 5.55052L19.4545 3.78409ZM23.5341 7.81818L21.7935 8.80327L21.7953 8.80646L23.5341 7.81818ZM17.9886 10.8409L16.1178 11.548L16.1212 11.5569L16.1246 11.5658L17.9886 10.8409ZM16.3636 8.65909L15.2144 10.2959L15.2243 10.3029L15.2343 10.3097L16.3636 8.65909ZM11.0795 8.65909L12.2171 10.3041L12.2207 10.3016L11.0795 8.65909ZM9.45455 10.8409L7.5886 10.121L7.58557 10.1289L9.45455 10.8409ZM9.45455 17.8977L7.58371 18.6048L7.58708 18.6137L7.59054 18.6226L9.45455 17.8977ZM11.0795 20.0795L9.93028 21.7164L9.94019 21.7233L9.95018 21.7302L11.0795 20.0795ZM16.3636 20.0795L17.5011 21.7246L17.5048 21.7221L16.3636 20.0795ZM17.9886 17.8977L16.1227 17.1778L16.1197 17.1857L17.9886 17.8977ZM11.5 19.3636H16.4091V15.3636H11.5V19.3636ZM14.8442 18.6091L16.617 20.8364L19.7467 18.3454L17.9739 16.1181L14.8442 18.6091ZM16.6804 20.9122L19.6804 24.3213L22.6832 21.6787L19.6832 18.2697L16.6804 20.9122ZM19.6405 24.2745L23.5496 29.0018L26.6322 26.4527L22.7231 21.7255L19.6405 24.2745ZM25.0909 25.7273H19.5V29.7273H25.0909V25.7273ZM21.017 26.4239L18.2443 23.1967L15.2103 25.8033L17.983 29.0306L21.017 26.4239ZM18.3696 23.3587L16.506 20.6769L13.2213 22.9595L15.0849 25.6413L18.3696 23.3587ZM16.4597 20.613L13.0961 16.1584L9.90392 18.5688L13.2676 23.0234L16.4597 20.613ZM23.0455 14.3636C23.0455 16.6997 22.5915 18.5255 21.7935 19.9354L25.2747 21.9055C26.4919 19.7549 27.0455 17.2094 27.0455 14.3636H23.0455ZM21.7953 19.9322C20.9645 21.394 19.8729 22.4619 18.5105 23.1914L20.3986 26.7177C22.4604 25.6138 24.0886 23.9924 25.2729 21.9087L21.7953 19.9322ZM18.5166 23.1881C17.1179 23.9308 15.5352 24.3182 13.7273 24.3182V28.3182C16.1314 28.3182 18.367 27.7965 20.3925 26.721L18.5166 23.1881ZM13.7273 24.3182C11.9044 24.3182 10.3168 23.9272 8.92128 23.18L7.03326 26.7064C9.06197 27.7925 11.3078 28.3182 13.7273 28.3182V24.3182ZM8.93059 23.185C7.57199 22.4483 6.4807 21.3748 5.64786 19.9095L2.17032 21.886C3.35263 23.9662 4.97346 25.5895 7.02395 26.7014L8.93059 23.185ZM5.65284 19.9183C4.8593 18.5055 4.40909 16.6845 4.40909 14.3636H0.409091C0.409091 17.1943 0.958885 19.7293 2.16535 21.8772L5.65284 19.9183ZM4.40909 14.3636C4.40909 12.0249 4.86034 10.2025 5.65105 8.80082L2.16713 6.83554C0.957838 8.97929 0.409091 11.5206 0.409091 14.3636H4.40909ZM5.64966 8.80327C6.48174 7.33307 7.56908 6.26846 8.91845 5.5488L7.0361 2.01938C4.97638 3.1179 3.3516 4.74269 2.16852 6.83309L5.64966 8.80327ZM8.92128 5.54728C10.3168 4.80011 11.9044 4.40909 13.7273 4.40909V0.40909C11.3078 0.40909 9.06197 0.934733 7.03326 2.0209L8.92128 5.54728ZM13.7273 4.40909C15.5325 4.40909 17.1129 4.799 18.5105 5.54728L20.3986 2.0209C18.3719 0.935848 16.1342 0.40909 13.7273 0.40909V4.40909ZM18.5166 5.55052C19.8732 6.27085 20.9627 7.33533 21.7935 8.80327L25.2747 6.83309C24.0903 4.74042 22.4601 3.11551 20.3925 2.01766L18.5166 5.55052ZM21.7953 8.80646C22.5913 10.2069 23.0455 12.0272 23.0455 14.3636H27.0455C27.0455 11.5183 26.492 8.97488 25.2729 6.82991L21.7953 8.80646ZM20.5455 14.3636C20.5455 12.8055 20.3398 11.3686 19.8526 10.116L16.1246 11.5658C16.3799 12.2223 16.5455 13.1339 16.5455 14.3636H20.5455ZM19.8595 10.1338C19.3777 8.85919 18.6079 7.77128 17.493 7.00848L15.2343 10.3097C15.5588 10.5317 15.8723 10.8984 16.1178 11.548L19.8595 10.1338ZM17.5129 7.02226C16.401 6.24157 15.0995 5.90909 13.7273 5.90909V9.90909C14.446 9.90909 14.902 10.0766 15.2144 10.2959L17.5129 7.02226ZM13.7273 5.90909C12.3543 5.90909 11.0536 6.24182 9.93843 7.01658L12.2207 10.3016C12.5449 10.0764 13.0093 9.90909 13.7273 9.90909V5.90909ZM9.94204 7.01408C8.84084 7.77554 8.07616 8.85735 7.58861 10.121L11.3205 11.5608C11.5754 10.9002 11.894 10.5275 12.2171 10.3041L9.94204 7.01408ZM7.58557 10.1289C7.11004 11.3772 6.90909 12.8092 6.90909 14.3636H10.9091C10.9091 13.1302 11.0718 12.2137 11.3235 11.5529L7.58557 10.1289ZM6.90909 14.3636C6.90909 15.9188 7.11026 17.3522 7.58371 18.6048L11.3254 17.1906C11.0716 16.5191 10.9091 15.5963 10.9091 14.3636H6.90909ZM7.59054 18.6226C8.07894 19.8785 8.84133 20.9518 9.93028 21.7164L12.2288 18.4427C11.8935 18.2073 11.5726 17.826 11.3186 17.1728L7.59054 18.6226ZM9.95018 21.7302C11.064 22.4923 12.3604 22.8182 13.7273 22.8182V18.8182C13.0033 18.8182 12.5344 18.6517 12.2089 18.4289L9.95018 21.7302ZM13.7273 22.8182C15.0934 22.8182 16.3905 22.4925 17.5011 21.7246L15.2261 18.4345C14.9125 18.6514 14.4521 18.8182 13.7273 18.8182V22.8182ZM17.5048 21.7221C18.6073 20.9561 19.375 19.8767 19.8576 18.6097L16.1197 17.1857C15.875 17.8279 15.5593 18.203 15.2225 18.437L17.5048 21.7221ZM19.8546 18.6177C20.3395 17.3607 20.5455 15.9226 20.5455 14.3636H16.5455C16.5455 15.5926 16.3801 16.5105 16.1227 17.1778L19.8546 18.6177ZM41.7727 2.72727V0.727272H39.7727V2.72727H41.7727ZM48.0909 2.72727H50.0909V0.727272H48.0909V2.72727ZM46.8182 22.2386L45.1451 21.1428L45.1436 21.1452L46.8182 22.2386ZM43.2955 25.2273L44.1347 27.0427L44.1422 27.0392L43.2955 25.2273ZM32.7727 25.2273L31.926 27.0392L31.9335 27.0427L32.7727 25.2273ZM29.25 22.2386L27.5679 23.3207L27.5754 23.3321L29.25 22.2386ZM28 2.72727V0.727272H26V2.72727H28ZM34.3182 2.72727H36.3182V0.727272H34.3182V2.72727ZM34.7955 19.0227L33.0504 20L33.0561 20.0099L34.7955 19.0227ZM36.1136 20.3409L35.1264 22.0803L35.1364 22.0859L36.1136 20.3409ZM39.9773 20.3409L40.9645 22.0803L39.9773 20.3409ZM41.2955 19.0227L43.0349 20.01L43.0405 19.9999L41.2955 19.0227ZM41.7727 4.72727H48.0909V0.727272H41.7727V4.72727ZM46.0909 2.72727V17.6364H50.0909V2.72727H46.0909ZM46.0909 17.6364C46.0909 19.0777 45.7506 20.2183 45.1451 21.1428L48.4913 23.3345C49.5827 21.6681 50.0909 19.7405 50.0909 17.6364H46.0909ZM45.1436 21.1452C44.523 22.0957 43.6475 22.8551 42.4487 23.4154L44.1422 27.0392C45.9586 26.1903 47.4316 24.9574 48.4928 23.3321L45.1436 21.1452ZM42.4562 23.4119C41.2589 23.9654 39.805 24.2727 38.0455 24.2727V28.2727C40.2707 28.2727 42.3169 27.8831 44.1347 27.0427L42.4562 23.4119ZM38.0455 24.2727C36.2683 24.2727 34.8074 23.9645 33.612 23.4119L31.9335 27.0427C33.7532 27.8839 35.8075 28.2727 38.0455 28.2727V24.2727ZM33.6195 23.4154C32.4207 22.8551 31.5452 22.0957 30.9246 21.1452L27.5754 23.3321C28.6366 24.9574 30.1096 26.1903 31.926 27.0392L33.6195 23.4154ZM30.932 21.1566C30.3362 20.2304 30 19.0847 30 17.6364H26C26 19.7335 26.4971 21.656 27.568 23.3206L30.932 21.1566ZM30 17.6364V2.72727H26V17.6364H30ZM28 4.72727H34.3182V0.727272H28V4.72727ZM32.3182 2.72727V17.0909H36.3182V2.72727H32.3182ZM32.3182 17.0909C32.3182 18.116 32.548 19.1026 33.0504 19.9999L36.5405 18.0455C36.4066 17.8065 36.3182 17.5052 36.3182 17.0909H32.3182ZM33.0561 20.0099C33.5525 20.8846 34.2518 21.5839 35.1264 22.0803L37.1008 18.6015C36.8543 18.4616 36.6748 18.2821 36.5348 18.0355L33.0561 20.0099ZM35.1364 22.0859C36.0337 22.5884 37.0204 22.8182 38.0455 22.8182V18.8182C37.6311 18.8182 37.3299 18.7298 37.0908 18.5959L35.1364 22.0859ZM38.0455 22.8182C39.0736 22.8182 40.0659 22.5903 40.9645 22.0803L38.9901 18.6015C38.7674 18.7279 38.4718 18.8182 38.0455 18.8182V22.8182ZM40.9645 22.0803C41.8391 21.5839 42.5384 20.8846 43.0348 20.0099L39.5561 18.0355C39.4161 18.2821 39.2366 18.4616 38.9901 18.6015L40.9645 22.0803ZM43.0405 19.9999C43.543 19.1026 43.7727 18.116 43.7727 17.0909H39.7727C39.7727 17.5052 39.6843 17.8065 39.5504 18.0455L43.0405 19.9999ZM43.7727 17.0909V2.72727H39.7727V17.0909H43.7727ZM57.4119 2.72727H59.4119V0.727272H57.4119V2.72727ZM57.4119 26V28H59.4119V26H57.4119ZM51.0938 26H49.0938V28H51.0938V26ZM51.0938 2.72727V0.727272H49.0938V2.72727H51.0938ZM55.4119 2.72727V26H59.4119V2.72727H55.4119ZM57.4119 24H51.0938V28H57.4119V24ZM53.0938 26V2.72727H49.0938V26H53.0938ZM51.0938 4.72727H57.4119V0.727272H51.0938V4.72727ZM60.4972 26H58.4972V28H60.4972V26ZM60.4972 22.5L58.8966 21.3008L58.4972 21.8339V22.5H60.4972ZM71.4972 7.81818L73.0978 9.01739L75.4947 5.81818H71.4972V7.81818ZM60.5426 7.81818H58.5426V9.81818H60.5426V7.81818ZM60.5426 2.72727V0.727272H58.5426V2.72727H60.5426ZM79.5426 2.72727H81.5426V0.727272H79.5426V2.72727ZM79.5426 6.22727L81.1432 7.42648L81.5426 6.89339V6.22727H79.5426ZM68.5426 20.9091L66.942 19.7099L64.5451 22.9091H68.5426V20.9091ZM79.4972 20.9091H81.4972V18.9091H79.4972V20.9091ZM79.4972 26V28H81.4972V26H79.4972ZM62.4972 26V22.5H58.4972V26H62.4972ZM62.0978 23.6992L73.0978 9.01739L69.8966 6.61897L58.8966 21.3008L62.0978 23.6992ZM71.4972 5.81818H60.5426V9.81818H71.4972V5.81818ZM62.5426 7.81818V2.72727H58.5426V7.81818H62.5426ZM60.5426 4.72727H79.5426V0.727272H60.5426V4.72727ZM77.5426 2.72727V6.22727H81.5426V2.72727H77.5426ZM77.942 5.02806L66.942 19.7099L70.1432 22.1083L81.1432 7.42648L77.942 5.02806ZM68.5426 22.9091H79.4972V18.9091H68.5426V22.9091ZM77.4972 20.9091V26H81.4972V20.9091H77.4972ZM79.4972 24H60.4972V28H79.4972V24ZM82.625 26H80.625V28H82.625V26ZM82.625 2.72727V0.727272H80.625V2.72727H82.625ZM88.9432 2.72727H90.9432V0.727272H88.9432V2.72727ZM88.9432 20.9091H86.9432V22.9091H88.9432V20.9091ZM98.3523 20.9091H100.352V18.9091H98.3523V20.9091ZM98.3523 26V28H100.352V26H98.3523ZM84.625 26V2.72727H80.625V26H84.625ZM82.625 4.72727H88.9432V0.727272H82.625V4.72727ZM86.9432 2.72727V20.9091H90.9432V2.72727H86.9432ZM88.9432 22.9091H98.3523V18.9091H88.9432V22.9091ZM96.3523 20.9091V26H100.352V20.9091H96.3523ZM98.3523 24H82.625V28H98.3523V24ZM95.733 2.72727V0.727272H92.3929L93.9699 3.67158L95.733 2.72727ZM102.778 2.72727L104.581 1.86068L104.036 0.727272H102.778V2.72727ZM107.324 12.1818L105.521 13.0484L106.066 14.1818H107.324V12.1818ZM107.506 12.1818V14.1818H108.763L109.308 13.0484L107.506 12.1818ZM112.051 2.72727V0.727272H110.794L110.249 1.86068L112.051 2.72727ZM119.097 2.72727L120.86 3.67158L122.437 0.727272H119.097V2.72727ZM110.551 18.6818L108.788 17.7375L108.551 18.1799V18.6818H110.551ZM110.551 26V28H112.551V26H110.551ZM104.278 26H102.278V28H104.278V26ZM104.278 18.6818H106.278V18.1799L106.041 17.7375L104.278 18.6818ZM95.733 4.72727H102.778V0.727272H95.733V4.72727ZM100.976 3.59386L105.521 13.0484L109.126 11.3152L104.581 1.86068L100.976 3.59386ZM107.324 14.1818H107.506V10.1818H107.324V14.1818ZM109.308 13.0484L113.854 3.59386L110.249 1.86068L105.703 11.3152L109.308 13.0484ZM112.051 4.72727H119.097V0.727272H112.051V4.72727ZM117.334 1.78297L108.788 17.7375L112.314 19.6261L120.86 3.67158L117.334 1.78297ZM108.551 18.6818V26H112.551V18.6818H108.551ZM110.551 24H104.278V28H110.551V24ZM106.278 26V18.6818H102.278V26H106.278ZM106.041 17.7375L97.496 1.78297L93.9699 3.67158L102.515 19.6261L106.041 17.7375Z" fill="#0F8054" mask="url(#path-1-outside-1_410_122)"/>
</svg>
